<svg width="22" height="25" viewBox="0 0 22 25" fill="none" xmlns="http://www.w3.org/2000/svg">
<path fill-rule="evenodd" clip-rule="evenodd" d="M0 5C0 2.23858 2.23858 0 5 0H17C19.7614 0 22 2.23858 22 5V20C22 22.7614 19.7614 25 17 25H5C2.23858 25 0 22.7614 0 20V5ZM14.8725 1C14.923 1 14.9725 1.00418 15.0207 1.0122L15.1791 1.01312C15.4184 1.01312 15.6471 1.10862 15.8137 1.27776L21.7558 7.34948C21.9118 7.50941 21.9999 7.72457 21.9999 7.94664V18.5207C22.0185 21.4075 19.7243 23.7536 16.7767 23.8571H7.22896C4.36672 23.7968 2.0712 21.5279 2.00043 18.7488L2 6.16666C2.0692 3.31202 4.47138 1.01312 7.35916 1.01312L14.7244 1.0122C14.7726 1.00418 14.8221 1 14.8725 1ZM13.9921 2.73856L7.36268 2.73902C5.41912 2.73902 3.80515 4.28313 3.75941 6.18737V18.5207C3.71718 20.4778 5.28892 22.0887 7.26532 22.1312H16.7462C18.7038 22.0622 20.2533 20.4778 20.2404 18.5264L20.2404 9.03465L17.8846 9.0358C15.737 9.03004 13.9928 7.31335 13.9928 5.21005L13.9921 2.73856ZM15.7515 3.70621L15.7522 5.21005C15.7522 6.36525 16.7094 7.30644 17.887 7.3099L19.2762 7.30875L15.7515 3.70621ZM9.55763 16.9061C9.77071 17.1113 10.0471 17.2111 10.3236 17.2097C10.6 17.2083 10.875 17.1042 11.0852 16.8962L16.6611 11.3846C17.0801 10.9728 17.0757 10.3051 16.651 9.89465C16.2278 9.48561 15.5439 9.48982 15.1235 9.90449L10.3077 14.664L8.33533 12.7636C7.91062 12.3545 7.22676 12.3588 6.80781 12.7734C6.38886 13.1867 6.39318 13.853 6.81645 14.2634L9.55763 16.9061Z" fill="#099430"/>
</svg>
