<svg width="21" height="23" viewBox="0 0 21 23" fill="none" xmlns="http://www.w3.org/2000/svg">
<path fill-rule="evenodd" clip-rule="evenodd" d="M12.953 0C13.0038 0 13.0536 0.00420373 13.102 0.0122756L13.2615 0.0131988C13.5023 0.0131988 13.7324 0.109296 13.9 0.279491L19.8793 6.38916C20.0363 6.55009 20.1249 6.7666 20.1249 6.99005V17.6302C20.1437 20.5351 17.8351 22.8958 14.869 23H5.26164C2.38151 22.9393 0.0716467 20.6562 0.000431586 17.8597L0 5.19895C0.0696359 2.32647 2.48683 0.0131988 5.39265 0.0131988L12.8039 0.0122756C12.8524 0.00420373 12.9022 0 12.953 0ZM12.0671 1.74942L5.39619 1.74989C3.44049 1.74989 1.81643 3.30364 1.7704 5.21979V17.6302C1.72791 19.5996 3.30948 21.2205 5.29823 21.2633H14.8383C16.8082 21.1938 18.3674 19.5996 18.3545 17.6359L18.3544 8.08486L15.9839 8.08602C13.8228 8.08023 12.0678 6.3528 12.0678 4.23636L12.0671 1.74942ZM13.8375 2.72313L13.8382 4.23636C13.8382 5.39878 14.8013 6.34586 15.9863 6.34933L17.3842 6.34817L13.8375 2.72313Z" fill="#099430"/>
<path d="M8.37557 16.311C8.09742 16.3124 7.81927 16.212 7.60486 16.0055L4.84654 13.3463C4.42062 12.9333 4.41628 12.2629 4.83785 11.847C5.25942 11.4298 5.94755 11.4255 6.37492 11.8371L8.35963 13.7494L13.2055 8.96014C13.6285 8.54288 14.3167 8.53864 14.7426 8.95024C15.17 9.36326 15.1743 10.0351 14.7527 10.4495L9.14193 15.9956C8.93042 16.2049 8.65372 16.3096 8.37557 16.311Z" fill="#099430"/>
</svg>
